#!OML:ASF H:\Terrain\Patient Classification 1\Animal1\Tuesday\Animal1.ASF
:FULLY-SPECIFIED
:DEGREES
2577
root -0.935597 16.1725 -13.0776 11.1078 17.7237 1.43651
lowerback -10.128 -0.255661 5.24333
upperback -12.882 0.0826694 8.29382
thorax -8.16615 0.139526 5.99259
lowerneck -2.12492 18.6079 7.82461
upperneck 6.28941 23.7822 10.8387
head 1.89576 12.2536 2.74122
rclavicle 4.37326e-014 -3.81667e-014
rhumerus -111.818 47.4253 -122.983
rradius 108.961
rwrist -32.3954
rhand -3.47976 32.9729
rfingers 7.12502
rthumb 22.2535 4.23412
lclavicle 4.37326e-014 -3.81667e-014
lhumerus 35.8326 32.6536 53.3917
lradius 28.0045
lwrist -6.3578
lhand 14.9587 38.1249
lfingers 7.12502
lthumb 39.8128 63.4071
rfemur -9.73391 43.239 17.7447
rtibia 21.7653
rfoot -48.8005 -47.2056
rtoes 43.3823
lfemur -18.0512 -46.628 4.25754
ltibia 0.638266
lfoot -12.823 33.6031
ltoes -21.6091
2578
root -0.936481 16.1743 -13.0837 11.1096 17.8939 1.34586
lowerback -10.1215 -0.193825 5.40244
upperback -12.9323 0.169856 8.31137
thorax -8.23753 0.172787 5.92889
lowerneck -2.17396 18.5704 7.7824
upperneck 6.33546 23.7257 10.8296
head 1.91727 12.2287 2.75154
rclavicle 5.96354e-014 -1.145e-013
rhumerus -111.796 47.3189 -122.747
rradius 109.027
rwrist -32.4892
rhand -2.78756 33.1999
rfingers 7.12502
rthumb 22.9178 4.54192
lclavicle 5.96354e-014 -1.145e-013
lhumerus 36.3555 33.0744 54.4274
lradius 28.6023
lwrist -4.38917
lhand 15.1698 38.1289
lfingers 7.12502
lthumb 40.0115 63.3515
rfemur -9.81631 43.587 17.8317
rtibia 21.8821
rfoot -50.0366 -46.8215
rtoes 44.0655
lfemur -17.9377 -46.687 4.50054
ltibia 0
lfoot -11.2441 34.2661
ltoes -24.0377
2579
root -0.939907 16.1751 -13.0913 11.1998 18.0395 1.46506
lowerback -10.1195 -0.164088 5.35677
upperback -13.0159 0.220978 8.2593
thorax -8.33694 0.201262 5.90363
lowerneck -2.08649 18.5448 7.81009
upperneck 6.29367 23.7048 10.8378
head 1.89083 12.2152 2.73666
rclavicle -6.36111e-014 1.59028e-014
rhumerus -111.743 47.1934 -122.671
rradius 108.966
rwrist -32.5956
rhand -2.34427 32.9864
rfingers 7.12502
rthumb 23.3432 4.38176
lclavicle -6.36111e-014 1.59028e-014
lhumerus 36.7739 33.3869 55.1867
lradius 29.0657
lwrist -2.61667
lhand 14.9553 37.9517
lfingers 7.12502
lthumb 39.8096 63.235
rfemur -9.99263 43.6526 17.6476
rtibia 22.0211
rfoot -50.7585 -46.5289
rtoes 44.4995
lfemur -18.1608 -46.7321 4.55073
ltibia 9.54166e-015
lfoot -11.0249 34.5254
ltoes -23.6691
2580
root -0.94383 16.1742 -13.0939 11.318 18.1471 1.66632
lowerback -10.2053 -0.147368 5.22444
upperback -13.0573 0.240325 8.16539
thorax -8.33288 0.217726 5.87555
lowerneck -1.87765 18.5422 8.0501
upperneck 6.14183 23.7298 10.7573
head 1.84235 12.2164 2.65397
rclavicle 3.97569e-014 1.27222e-014
rhumerus -111.768 47.1067 -122.805
rradius 108.87
rwrist -32.6387
rhand -2.51732 33.1624
rfingers 7.12502
rthumb 23.1771 4.53681
lclavicle 3.97569e-014 1.27222e-014
lhumerus 37.1302 33.7155 55.8293
lradius 29.5759
lwrist -1.322
lhand 14.7313 37.5187
lfingers 7.12502
lthumb 39.5986 62.8646
rfemur -10.1152 43.3126 17.4207
rtibia 22.1005
rfoot -50.2409 -46.782
rtoes 44.1208
lfemur -18.3247 -46.7642 4.4847
ltibia 1.59028e-015
lfoot -11.5287 34.5644
ltoes -21.6557
2581
root -0.946861 16.1717 -13.0933 11.3766 18.238 1.68179
lowerback -10.2972 -0.088974 5.26822
upperback -13.0758 0.307395 8.10694
thorax -8.30571 0.244885 5.78818
lowerneck -1.76173 18.5044 8.21672
upperneck 5.96982 23.7004 10.7436
head 1.7869 12.1914 2.60521
rclavicle -4.45278e-014 1.145e-013
rhumerus -111.704 47.0173 -122.827
rradius 108.85
rwrist -32.8576
rhand -1.98935 33.3843
rfingers 7.12502
rthumb 23.6836 4.82336
lclavicle -4.45278e-014 1.145e-013
lhumerus 37.5051 33.9372 56.4409
lradius 30.0686
lwrist -0.226637
lhand 15.203 36.9529
lfingers 7.12502
lthumb 40.0427 62.166
rfemur -10.2034 43.1222 17.4177
rtibia 22.2034
rfoot -50.0062 -46.8608
rtoes 43.9841
lfemur -18.4235 -46.7539 4.55951
ltibia 1.59028e-014
lfoot -11.7845 34.7441
ltoes -20.9997
2582
root -0.949358 16.1693 -13.0963 11.2458 18.3899 1.56223
lowerback -10.2036 -0.0310375 5.44186
upperback -13.0761 0.389387 8.09574
thorax -8.36624 0.271011 5.68206
lowerneck -1.76307 18.4578 8.12078
upperneck 5.85924 23.6473 10.9138
head 1.71766 12.1605 2.65101
rclavicle -5.1684e-014 6.36111e-015
rhumerus -111.561 46.9379 -122.774
rradius 108.826
rwrist -33.2471
rhand -1.32807 33.3967
rfingers 7.12502
rthumb 24.3177 4.91923
lclavicle -5.1684e-014 6.36111e-015
lhumerus 37.8029 34.0722 57.0084
lradius 30.5271
lwrist 0.840673
lhand 15.9244 36.4447
lfingers 7.12502
lthumb 40.7211 61.4491
rfemur -10.0659 43.1322 17.6802
rtibia 22.2584
rfoot -50.4071 -46.6594
rtoes 44.3161
lfemur -18.3458 -46.8365 4.64491
ltibia -1.59028e-015
lfoot -12.0712 34.9296
ltoes -20.9941
2583
root -0.953094 16.1745 -13.1001 11.1938 18.5766 1.63129
lowerback -10.1261 -0.0201896 5.43999
upperback -13.0987 0.41293 8.02863
thorax -8.43532 0.279594 5.61146
lowerneck -1.79981 18.4247 8.17658
upperneck 5.91627 23.5872 11.0024
head 1.73993 12.1379 2.67829
rclavicle 1.27222e-014 -7.31528e-014
rhumerus -111.462 46.7943 -122.743
rradius 108.752
rwrist -33.2898
rhand -1.16187 33.6922
rfingers 7.12502
rthumb 24.477 5.23621
lclavicle 1.27222e-014 -7.31528e-014
lhumerus 38.1475 34.3664 57.6343
lradius 30.9854
lwrist 1.67944
lhand 16.336 36.0676
lfingers 7.12502
lthumb 41.1077 60.9496
rfemur -9.92173 42.9132 17.759
rtibia 22.2821
rfoot -51.0123 -45.9858
rtoes 45.0607
lfemur -18.3699 -46.9754 4.5889
ltibia 2.06736e-014
lfoot -12.0298 35.1427
ltoes -21.0627
2584
root -0.958106 16.1844 -13.102 11.3965 18.7143 1.91535
lowerback -10.2104 -0.0166565 5.21437
upperback -13.1926 0.423581 7.91202
thorax -8.49073 0.299402 5.61363
lowerneck -1.68848 18.3697 8.38788
upperneck 5.88177 23.523 10.9287
head 1.7454 12.1038 2.62035
rclavicle -1.19271e-014 -3.18055e-014
rhumerus -111.477 46.6906 -122.83
rradius 108.71
rwrist -33.0452
rhand -0.954208 33.9307
rfingers 7.12502
rthumb 24.6761 5.50181
lclavicle -1.19271e-014 -3.18055e-014
lhumerus 38.5662 34.7706 58.3638
lradius 31.4534
lwrist 2.57349
lhand 16.9343 35.5061
lfingers 7.12502
lthumb 41.6692 60.206
rfemur -10.0384 42.7364 17.4384
rtibia 22.2922
rfoot -51.4746 -45.5219
rtoes 45.6827
lfemur -18.6512 -47.0312 4.487
ltibia -3.33958e-014
lfoot -11.8562 35.411
ltoes -21.628
2585
root -0.959152 16.1749 -13.1054 11.4383 18.8554 1.98061
lowerback -10.2076 -0.00199792 5.19964
upperback -13.2646 0.454464 7.90455
thorax -8.57805 0.317722 5.61885
lowerneck -1.39841 18.302 8.44955
upperneck 5.6583 23.493 10.8283
head 1.64145 12.068 2.53331
rclavicle -4.77083e-014 -8.26944e-014
rhumerus -111.587 46.7436 -122.91
rradius 108.738
rwrist -32.9964
rhand -0.684659 33.9546
rfingers 7.12502
rthumb 24.9344 5.56121
lclavicle -4.77083e-014 -8.26944e-014
lhumerus 38.8076 35.1197 59.044
lradius 31.9753
lwrist 3.79429
lhand 17.7268 34.6788
lfingers 7.12502
lthumb 42.4118 59.1293
rfemur -10.074 42.8313 17.3759
rtibia 22.3303
rfoot -51.3399 -46.1283
rtoes 45.1986
lfemur -18.7665 -47.087 4.5157
ltibia -3.18055e-014
lfoot -12.7232 35.5095
ltoes -20.147
2586
root -0.963288 16.1689 -13.1044 11.3222 19.0039 1.83928
lowerback -10.18 0.0196619 5.32841
upperback -13.2683 0.488915 7.97895
thorax -8.60469 0.329572 5.6307
lowerneck -1.20322 18.2767 8.46251
upperneck 5.5229 23.4999 10.7499
head 1.57423 12.0576 2.47663
rclavicle 4.13472e-014 -5.08889e-014
rhumerus -111.647 46.8145 -122.875
rradius 108.777
rwrist -33.1682
rhand -0.847985 34.1909
rfingers 7.12502
rthumb 24.7779 5.77599
lclavicle 4.13472e-014 -5.08889e-014
lhumerus 39.2349 35.5461 59.9383
lradius 32.4433
lwrist 5.09159
lhand 17.9004 34.0177
lfingers 7.12502
lthumb 42.5743 58.4124
rfemur -9.94595 43.0685 17.6346
rtibia 22.3235
rfoot -51.4175 -46.636
rtoes 44.8428
lfemur -18.7099 -47.1486 4.66573
ltibia 4.77083e-015
lfoot -14.0481 35.4731
ltoes -17.3303
2587
root -0.971309 16.1642 -13.0992 11.2426 19.1605 1.69496
lowerback -10.2881 0.0297437 5.40486
upperback -13.2256 0.489332 8.04564
thorax -8.49738 0.328078 5.6581
lowerneck -1.22093 18.3092 8.58895
upperneck 5.54375 23.5348 10.6593
head 1.61002 12.0765 2.44404
rclavicle 6.59965e-014 2.54444e-014
rhumerus -111.5 46.8633 -122.738
rradius 108.785
rwrist -33.3419
rhand -0.655863 34.1005
rfingers 7.12502
rthumb 24.962 5.71103
lclavicle 6.59965e-014 2.54444e-014
lhumerus 39.8947 36.0562 60.9635
lradius 32.9977
lwrist 6.54545
lhand 17.6353 33.8468
lfingers 7.12502
lthumb 42.3262 58.3267
rfemur -9.82897 43.4019 17.9241
rtibia 22.3344
rfoot -52.3841 -46.4232
rtoes 45.0722
lfemur -18.7037 -47.2034 4.85216
ltibia -1.27222e-014
lfoot -13.7898 35.921
ltoes -17.0991
2588
root -0.975867 16.1593 -13.0981 11.1413 19.3362 1.59186
lowerback -10.3299 -0.00171503 5.51491
upperback -13.154 0.434516 8.09954
thorax -8.39001 0.294062 5.64947
lowerneck -1.40906 18.3994 8.68367
upperneck 5.6583 23.6127 10.6433
head 1.69235 12.1266 2.4636
rclavicle 3.18055e-015 2.8625e-014
rhumerus -111.392 47.0386 -122.739
rradius 108.791
rwrist -33.4177
rhand -0.313926 33.6519
rfingers 7.12502
rthumb 25.2897 5.30831
lclavicle 3.18055e-015 2.8625e-014
lhumerus 40.3251 36.5719 61.6781
lradius 33.7595
lwrist 8.30352
lhand 17.4837 33.8722
lfingers 7.12502
lthumb 42.1842 58.4002
rfemur -9.65296 43.5994 18.1941
rtibia 22.3219
rfoot -53.1079 -46.2205
rtoes 45.2208
lfemur -18.6811 -47.3002 4.95823
ltibia -2.54444e-014
lfoot -12.7259 36.548
ltoes -18.6598
2589
root -0.980042 16.1575 -13.103 11.1428 19.4849 1.66749
lowerback -10.255 -0.0531702 5.51351
upperback -13.1613 0.377099 8.11851
thorax -8.43766 0.266844 5.67055
lowerneck -1.49996 18.483 8.61967
upperneck 5.73579 23.7019 10.764
head 1.70903 12.1783 2.52183
rclavicle 2.3059e-014 -5.725e-014
rhumerus -111.552 47.2609 -122.977
rradius 108.785
rwrist -33.427
rhand -0.274753 33.5393
rfingers 7.12502
rthumb 25.3272 5.20096
lclavicle 2.3059e-014 -5.725e-014
lhumerus 40.5024 37.0223 62.155
lradius 34.4887
lwrist 10.0158
lhand 17.27 33.8342
lfingers 7.12502
lthumb 41.984 58.4296
rfemur -9.58997 43.6271 18.1895
rtibia 22.2976
rfoot -53.3131 -46.179
rtoes 45.7047
lfemur -18.7581 -47.3795 4.95107
ltibia -5.40694e-014
lfoot -13.1071 36.772
ltoes -18.3185
2590
root -0.98547 16.1581 -13.1079 11.2361 19.6543 1.7184
lowerback -10.2786 -0.0775752 5.52636
upperback -13.2499 0.355991 8.14092
thorax -8.52729 0.258638 5.69267
lowerneck -1.38824 18.5064 8.60265
upperneck 5.7536 23.745 10.8168
head 1.68625 12.1992 2.52719
rclavicle 1.03368e-014 5.40694e-014
rhumerus -111.748 47.3252 -123.184
rradius 108.71
rwrist -33.4819
rhand 0.130078 33.6507
rfingers 7.12502
rthumb 25.715 5.36794
lclavicle 1.03368e-014 5.40694e-014
lhumerus 40.6104 37.3166 62.5804
lradius 35.0929
lwrist 11.3702
lhand 17.2859 33.6176
lfingers 7.12502
lthumb 41.9988 58.208
rfemur -9.69345 43.6973 18.1074
rtibia 22.2944
rfoot -53.6329 -46.0863
rtoes 46.2193
lfemur -19.0225 -47.4231 5.10185
ltibia -1.90833e-014
lfoot -13.5163 37.082
ltoes -17.3076
2591
root -0.989126 16.1589 -13.1117 11.2482 19.9068 1.54543
lowerback -10.3815 -0.0659209 5.76619
upperback -13.2825 0.361061 8.18766
thorax -8.51249 0.244863 5.61098
lowerneck -1.47278 18.5136 8.52936
upperneck 5.75938 23.7438 10.8828
head 1.68534 12.2008 2.56268
rclavicle 4.13472e-014 4.77083e-014
rhumerus -111.742 47.3299 -123.222
rradius 108.624
rwrist -33.463
rhand 0.270008 33.773
rfingers 7.12502
rthumb 25.849 5.50967
lclavicle 4.13472e-014 4.77083e-014
lhumerus 40.8481 37.5286 63.0103
lradius 35.6405
lwrist 12.4612
lhand 17.6369 33.2429
lfingers 7.12502
lthumb 42.3277 57.7222
rfemur -9.78784 43.8055 18.2852
rtibia 22.3416
rfoot -54.2022 -45.9078
rtoes 46.5015
lfemur -19.3003 -47.5009 5.51396
ltibia -6.36111e-015
lfoot -13.4889 37.4993
ltoes -16.4923
